HIERARCHY
ROOT Torso
{
	OFFSET 0.000000 0.000000 0.000000
	CHANNELS 6 Xposition Yposition Zposition Xrotation Yrotation Zrotation 
	JOINT LHip
	{
		OFFSET 0.000000 0.000000 0.000000
		CHANNELS 3 Xrotation Yrotation Zrotation
		JOINT LThigh
		{
			OFFSET 0.055000 -0.055000 -0.010000
			CHANNELS 3 Xrotation Yrotation Zrotation
			JOINT LLeg
			{
				OFFSET 0.000000 -0.160000 0.015000
				CHANNELS 3 Xrotation Yrotation Zrotation
				JOINT LFoot
				{
					OFFSET 0.000000 -0.160000 -0.010000
					CHANNELS 3 Xrotation Yrotation Zrotation
					JOINT LToes
					{
						OFFSET 0.000000 0.000000 0.090000
						CHANNELS 3 Xrotation Yrotation Zrotation
						End Site
						{
							OFFSET 0.000000 0.000000 0.000000
						}
					}
				}
			}
		}
	}
	JOINT RHip
	{
		OFFSET 0.000000 0.000000 0.000000
		CHANNELS 3 Xrotation Yrotation Zrotation
		JOINT RThigh
		{
			OFFSET -0.055000 -0.055000 -0.010000
			CHANNELS 3 Xrotation Yrotation Zrotation
			JOINT RLeg
			{
				OFFSET 0.000000 -0.160000 0.015000
				CHANNELS 3 Xrotation Yrotation Zrotation
				JOINT RFoot
				{
					OFFSET 0.000000 -0.160000 -0.010000
					CHANNELS 3 Xrotation Yrotation Zrotation
					JOINT RToes
					{
						OFFSET 0.000000 0.000000 0.090000
						CHANNELS 3 Xrotation Yrotation Zrotation
						End Site
						{
							OFFSET 0.000000 0.000000 0.000000
						}
					}
				}
			}
		}
	}
	JOINT Neck
	{
		OFFSET 0.000000 0.135000 0.000000
		CHANNELS 3 Xrotation Yrotation Zrotation
		JOINT Head
		{
			OFFSET 0.000000 0.075000 0.000000
			CHANNELS 3 Xrotation Yrotation Zrotation
			End Site
			{
				OFFSET 0.000000 0.000000 0.000000
			}
		}
	}
	JOINT LUpperarm
	{
		OFFSET 0.098000 0.150000 0.000000
		CHANNELS 3 Xrotation Yrotation Zrotation
		JOINT LLowerarm
		{
			OFFSET 0.000000 0.009000 0.090000
			CHANNELS 3 Xrotation Yrotation Zrotation
			JOINT LHand
			{
				OFFSET 0.000000 0.000000 0.105000
				CHANNELS 3 Xrotation Yrotation Zrotation
				End Site
				{
					OFFSET 0.000000 0.000000 0.000000
				}
			}
		}
	}
	JOINT RUpperarm
	{
		OFFSET -0.098000 0.150000 0.000000
		CHANNELS 3 Xrotation Yrotation Zrotation
		JOINT RLowerarm
		{
			OFFSET 0.000000 0.009000 0.090000
			CHANNELS 3 Xrotation Yrotation Zrotation
			JOINT RHand
			{
				OFFSET 0.000000 0.000000 0.105000
				CHANNELS 3 Xrotation Yrotation Zrotation
				End Site
				{
					OFFSET 0.000000 0.000000 0.000000
				}
			}
		}
	}
}
MOTION
Frames: 14
Frame Time: 0.040000
0.443193 0.425490 -0.022824 -104.472553 -78.443512 -104.437114 -5.054048 -7.124934 -3.208855 18.173589 -17.307615 -2.286778 22.186264 7.960280 -1.062344 -13.065586 21.095595 -1.358547 -2.668499 -0.970799 -0.022623 -3.797290 4.171156 3.561343 15.914019 14.948745 4.448271 21.834487 -9.512980 1.606610 -21.991087 -23.235792 -2.577318 -12.639994 4.553697 0.504608 21.228758 1.890649 -11.252794 7.238847 2.459591 -6.722712 -56.370145 33.506217 71.583986 -22.851611 -39.563681 9.387358 0.178000 0.000000 0.000000 -57.904129 -30.292041 -66.679198 -35.878581 52.992919 -4.166782 -12.735694 0.000000 0.000000 
0.443730 0.425565 -0.022738 -105.563110 -78.602125 -105.529049 -5.177265 -7.145375 -3.204367 18.012890 -17.201505 -2.303703 22.179264 7.965822 -1.072870 -12.969542 21.155857 -1.415198 -2.818899 -1.025498 -0.025265 -3.950248 4.250996 3.548160 15.749048 14.846281 4.429096 21.844346 -9.492201 1.602125 -21.675007 -23.307394 -2.409227 -12.928290 4.655408 0.527704 21.309922 1.819897 -11.115790 7.300385 2.416641 -6.704715 -55.718926 33.272840 71.163132 -22.898097 -39.144903 9.091207 0.479800 0.000000 0.000000 -57.378248 -29.792933 -66.419049 -34.481256 51.429766 -5.142474 -11.820794 0.000000 0.000000 
0.444250 0.425665 -0.022660 -106.907523 -78.782055 -106.880296 -5.316040 -7.175697 -3.204506 17.836276 -17.060991 -2.310139 22.173454 7.968707 -1.083709 -12.876896 21.217310 -1.470914 -2.922199 -1.062999 -0.027128 -4.127125 4.335849 3.530256 15.557651 14.744704 4.415113 21.857781 -9.471644 1.601606 -21.310892 -23.382046 -2.214884 -13.191496 4.748091 0.549353 21.319772 1.812383 -10.999410 7.354444 2.397828 -6.686451 -55.315737 33.277220 70.933318 -22.176679 -38.194988 9.248663 0.377500 0.000000 0.000000 -57.097161 -29.454979 -66.452124 -32.023503 49.358516 -6.867647 -11.562594 0.000000 0.000000 
0.444740 0.425804 -0.022594 -108.542045 -78.976371 -108.520464 -5.469007 -7.211409 -3.208723 17.648305 -16.913917 -2.313898 22.160716 7.967334 -1.096505 -12.809333 21.291391 -1.517913 -2.904498 -1.056600 -0.026775 -4.326132 4.419483 3.514496 15.345743 14.670241 4.391328 21.874371 -9.450401 1.609218 -20.915032 -23.475981 -2.002092 -13.464691 4.844204 0.572144 21.243661 1.863653 -10.918967 7.382215 2.403117 -6.667939 -55.201409 33.561739 70.928587 -20.823971 -36.805082 9.762791 0.115600 0.000000 0.000000 -57.040441 -29.329686 -66.742421 -28.890605 46.874787 -8.901247 -11.701894 0.000000 0.000000 
0.445193 0.425985 -0.022546 -110.475078 -79.178101 -110.449882 -5.635406 -7.250608 -3.216855 17.453121 -16.781907 -2.323695 22.132964 7.959283 -1.110566 -12.785529 21.381268 -1.548426 -2.707298 -0.984901 -0.023248 -4.542929 4.494660 3.506412 15.116619 14.638930 4.343317 21.899159 -9.431488 1.627188 -20.510759 -23.581631 -1.783248 -13.766496 4.950188 0.597975 21.080481 1.961870 -10.891642 7.377338 2.427777 -6.651079 -55.368069 34.169241 71.121146 -19.015599 -35.070809 10.508407 -0.161100 0.000000 0.000000 -57.159676 -29.462660 -67.218685 -25.434596 44.095606 -10.870971 -12.101494 0.000000 0.000000 
0.445610 0.426196 -0.022521 -112.663240 -79.374270 -112.622861 -5.813829 -7.293225 -3.229698 17.263197 -16.673688 -2.341133 22.083929 7.941993 -1.123686 -12.815134 21.484927 -1.557290 -2.326399 -0.846500 -0.017176 -4.771040 4.556604 3.506270 14.875763 14.650553 4.269415 21.940200 -9.422105 1.652131 -20.136110 -23.655194 -1.580856 -14.061993 5.053797 0.623704 20.849311 2.094501 -10.917950 7.352305 2.465158 -6.637140 -55.779638 35.132862 71.460957 -16.955343 -33.112321 11.344699 -0.499700 0.000000 0.000000 -57.387434 -29.907347 -67.774295 -21.924689 41.174653 -12.553377 -12.700494 0.000000 0.000000 
0.445997 0.426424 -0.022518 -115.031763 -79.557407 -114.962698 -5.999703 -7.338384 -3.246142 17.086779 -16.597541 -2.370021 22.012724 7.913800 -1.136990 -12.888187 21.614347 -1.550785 -1.841199 -0.670001 -0.010733 -4.996879 4.603684 3.513406 14.624947 14.680733 4.168557 22.003675 -9.427533 1.678681 -19.806060 -23.658032 -1.405662 -14.317795 5.143290 0.646457 20.590373 2.232841 -10.992269 7.324249 2.501231 -6.624041 -56.381093 36.467169 71.870692 -14.813754 -31.044311 12.169432 -1.009199 0.000000 0.000000 -57.671832 -30.707692 -68.315391 -18.545770 38.266012 -13.861773 -13.447493 0.000000 0.000000 
0.446364 0.426658 -0.022541 -117.475085 -79.722305 -117.369100 -6.187456 -7.385124 -3.266044 16.923028 -16.551546 -2.402063 21.927745 7.875774 -1.151604 -12.984204 21.771293 -1.538322 -1.331700 -0.484699 -0.005666 -5.210032 4.636909 3.525384 14.359277 14.704312 4.050710 22.085449 -9.445821 1.704144 -19.504506 -23.594016 -1.249739 -14.527591 5.216703 0.665354 20.324330 2.370608 -11.089213 7.302276 2.531374 -6.600789 -57.123515 38.161010 72.274292 -12.704522 -28.957703 12.925378 -1.623899 0.000000 0.000000 -57.991805 -31.901352 -68.774731 -15.399864 35.492664 -14.816534 -14.357893 0.000000 0.000000 
0.446726 0.426886 -0.022588 -119.926144 -79.867733 -119.783020 -6.371230 -7.431091 -3.287797 16.768981 -16.530693 -2.428172 21.847601 7.835053 -1.168826 -13.093905 21.940775 -1.521052 -0.837700 -0.304899 -0.002258 -5.405649 4.659610 3.540791 14.086693 14.706180 3.929668 22.167039 -9.468985 1.724500 -19.219772 -23.482015 -1.106119 -14.669093 5.266097 0.678300 20.072483 2.506734 -11.185750 7.295173 2.554141 -6.557278 -57.985258 40.185773 72.630402 -10.709123 -26.951520 13.584051 -2.251599 0.000000 0.000000 -58.331552 -33.526319 -69.092642 -12.565718 32.989229 -15.471141 -15.458992 0.000000 0.000000 
0.447085 0.427100 -0.022660 -122.337393 -79.991366 -122.173751 -6.547903 -7.471780 -3.312013 16.623410 -16.529100 -2.424515 21.790440 7.799841 -1.190795 -13.215252 22.106120 -1.496762 -0.371100 -0.135100 -0.000475 -5.588656 4.677348 3.557221 13.817752 14.693829 3.833224 22.226087 -9.486429 1.737790 -18.938266 -23.360199 -0.965280 -14.734696 5.288989 0.684367 19.837721 2.640898 -11.243441 7.290813 2.569226 -6.475581 -58.994681 42.498177 72.964576 -8.881595 -25.123784 14.133262 -2.894099 0.000000 0.000000 -58.675238 -35.606355 -69.208306 -10.048965 30.817638 -15.907000 -16.835292 0.000000 0.000000 
0.447449 0.427309 -0.022758 -124.691693 -80.098407 -124.553994 -6.715913 -7.503960 -3.344860 16.494077 -16.534671 -2.345690 21.764799 7.773578 -1.217692 -13.352773 22.253406 -1.460553 0.093500 0.034000 -0.000055 -5.772407 4.692853 3.568917 13.555582 14.703173 3.807752 22.245553 -9.489916 1.747381 -18.645083 -23.281920 -0.814666 -14.736594 5.289694 0.684527 19.613685 2.773305 -11.232888 7.286020 2.579660 -6.366039 -60.216718 45.021643 73.353029 -7.252517 -23.562146 14.579218 -3.622798 0.000000 0.000000 -58.994118 -38.166585 -69.058649 -7.835777 29.023991 -16.201445 -18.552191 0.000000 0.000000 
0.447813 0.427500 -0.022877 -126.971252 -80.195434 -126.902672 -6.881573 -7.529985 -3.383780 16.377416 -16.550809 -2.200183 21.773761 7.759326 -1.248791 -13.515766 22.376560 -1.406809 0.571400 0.208000 -0.001074 -5.963532 4.706836 3.577433 13.309463 14.738509 3.846492 22.215786 -9.475204 1.753565 -18.339617 -23.259306 -0.652673 -14.687291 5.272503 0.679955 19.382023 2.890800 -11.174087 7.266341 2.582206 -6.244111 -61.668818 47.726078 73.813541 -5.791915 -22.262517 14.951644 -4.414698 0.000000 0.000000 -59.288036 -41.159051 -68.611594 -5.868277 27.585648 -16.426859 -20.662190 0.000000 0.000000 
0.448169 0.427676 -0.023008 -129.124401 -80.298326 -129.138251 -7.050925 -7.555354 -3.421166 16.256777 -16.585171 -2.035120 21.814288 7.757234 -1.282012 -13.696127 22.475002 -1.339544 1.030799 0.375100 -0.003349 -6.154421 4.718746 3.588290 13.084584 14.767474 3.904823 22.138743 -9.442314 1.755278 -18.020950 -23.279411 -0.479950 -14.617994 5.248195 0.673621 19.128927 2.982008 -11.119344 7.222241 2.574825 -6.127820 -63.329010 50.625491 74.333040 -4.463438 -21.192905 15.277723 -5.220697 0.000000 0.000000 -59.601666 -44.487261 -67.889163 -4.085811 26.468005 -16.640301 -23.192989 0.000000 0.000000 
0.448511 0.427834 -0.023142 -131.114655 -80.422345 -131.216536 -7.227240 -7.585734 -3.457625 16.132868 -16.627389 -1.859255 21.871219 7.760648 -1.312355 -13.881357 22.546824 -1.264897 1.453799 0.529099 -0.006726 -6.342876 4.726346 3.599581 12.873759 14.781229 3.974738 22.030493 -9.399965 1.753570 -17.706086 -23.318738 -0.307178 -14.528691 5.217103 0.665458 18.850686 3.047869 -11.077410 7.162594 2.557363 -6.027660 -65.196827 53.693082 74.934566 -3.237432 -20.305253 15.564097 -5.986397 0.000000 0.000000 -59.947987 -48.095993 -66.898837 -2.417693 25.607183 -16.890733 -26.120987 0.000000 0.000000 
